<?xml version="1.0" encoding="UTF-8" standalone="no"?>
<!-- Created with Inkscape (http://www.inkscape.org/) -->

<svg
   width="50.000008mm"
   height="49.999996mm"
   viewBox="0 0 50.000008 49.999996"
   version="1.1"
   id="svg5"
   inkscape:version="1.2.2 (1:1.2.2+202212051552+b0a8486541)"
   sodipodi:docname="logo_will.svg"
   xmlns:inkscape="http://www.inkscape.org/namespaces/inkscape"
   xmlns:sodipodi="http://sodipodi.sourceforge.net/DTD/sodipodi-0.dtd"
   xmlns="http://www.w3.org/2000/svg"
   xmlns:svg="http://www.w3.org/2000/svg">
  <sodipodi:namedview
     id="namedview7"
     pagecolor="#ffffff"
     bordercolor="#111111"
     borderopacity="1"
     inkscape:showpageshadow="0"
     inkscape:pageopacity="0"
     inkscape:pagecheckerboard="1"
     inkscape:deskcolor="#d1d1d1"
     inkscape:document-units="mm"
     showgrid="false"
     inkscape:zoom="1.2470737"
     inkscape:cx="-81.79148"
     inkscape:cy="89.008376"
     inkscape:window-width="1366"
     inkscape:window-height="712"
     inkscape:window-x="0"
     inkscape:window-y="0"
     inkscape:window-maximized="1"
     inkscape:current-layer="layer1" />
  <defs
     id="defs2">
    <radialGradient
       id="paint0_radial_1_75"
       cx="0"
       cy="0"
       r="1"
       gradientUnits="userSpaceOnUse"
       gradientTransform="matrix(8.4828824,6.7433213,-9.8086764,12.338594,96.644161,129.46171)">
      <stop
         stop-color="#CECBC3"
         id="stop142" />
      <stop
         offset="0.510417"
         stop-color="#0F1322"
         id="stop144" />
    </radialGradient>
    <linearGradient
       id="paint1_linear_1_75"
       x1="0"
       y1="0"
       x2="24"
       y2="24"
       gradientUnits="userSpaceOnUse"
       gradientTransform="matrix(1.0416659,0,0,1.0416487,71.272926,102.87228)">
      <stop
         stop-color="#2D698D"
         id="stop147" />
      <stop
         offset="0.744792"
         stop-color="#CECBC3"
         id="stop149" />
    </linearGradient>
    <linearGradient
       id="paint2_linear_1_75"
       x1="48"
       y1="48"
       x2="24"
       y2="24"
       gradientUnits="userSpaceOnUse"
       gradientTransform="matrix(1.0416659,0,0,1.0416487,71.272926,102.87228)">
      <stop
         offset="0.40625"
         stop-color="#CECBC3"
         id="stop152" />
      <stop
         offset="1"
         stop-color="#2D698D"
         id="stop154" />
    </linearGradient>
    <linearGradient
       id="paint3_linear_1_75"
       x1="48"
       y1="48"
       x2="0"
       y2="0"
       gradientUnits="userSpaceOnUse"
       gradientTransform="matrix(1.0416659,0,0,1.0416487,71.272926,102.87228)">
      <stop
         stop-color="#272743"
         id="stop157" />
      <stop
         offset="1"
         stop-color="#CECBC3"
         id="stop159" />
    </linearGradient>
    <linearGradient
       id="paint4_linear_1_75"
       x1="-1.43051e-07"
       y1="-1.41561e-07"
       x2="48"
       y2="47.5"
       gradientUnits="userSpaceOnUse"
       gradientTransform="matrix(1.0416659,0,0,1.0416487,71.272926,102.87228)">
      <stop
         stop-color="#0F1322"
         id="stop162" />
      <stop
         offset="1"
         stop-color="#CECBC3"
         id="stop164" />
    </linearGradient>
  </defs>
  <g
     inkscape:label="Capa 1"
     inkscape:groupmode="layer"
     id="layer1"
     transform="translate(-71.272925,-102.87142)">
    <g
       id="g302">
      <path
         d="m 93.774992,127.5602 c -1.148956,0.12402 -2.248955,0.7033 -3.00958,1.53081 1.92177,-1.10948 3.682915,-1.03834 5.023748,-0.21299 0.798645,0.48999 0.643748,1.65134 -0.18937,2.13224 0.831252,-0.47987 1.916251,-0.0354 1.941251,0.90219 0.04551,1.61269 -0.91031,3.22767 -2.45177,4.11765 -0.0252,0.0157 -4.459371,2.11682 -4.459371,2.11682 l -2.228018,3.05817 c -0.315315,0.43145 -0.885,0.53113 -1.256877,0.3122 l -4.051246,-2.3861 c -0.386141,-0.23465 -0.484897,-0.72417 -0.230117,-1.12219 l 1.858439,-2.83014 0.147717,-4.02766 c -1.028956,-2.44775 -0.959059,-5.27884 0.220826,-7.92392 0.296457,-0.67309 1.099271,-1.04808 1.774999,-0.83277 0.688228,0.20786 0.996771,0.91588 0.700315,1.5891 -0.321063,0.74637 -0.547398,1.51207 -0.647917,2.26406 0.638645,-1.15136 1.536455,-2.20114 2.700415,-3.05039 0.619374,-0.46093 1.457602,-0.39865 1.871664,0.14489 0.426665,0.53625 0.269803,1.33561 -0.356023,1.78548 -0.682185,0.49719 -1.231039,1.10946 -1.641038,1.75957 1.046456,-0.90769 2.576037,-1.65406 4.228642,-1.85071 0.754894,-0.0815 1.369999,0.405 1.376145,1.11018 0.01221,0.68687 -0.586669,1.328 -1.322814,1.41344 z m 0.370315,3.47762 c -0.563433,-0.33897 -1.293956,-0.33109 -1.920621,0.0315 -0.211141,0.12126 -0.399062,0.27796 -0.553019,0.46178 -0.153858,0.18345 -0.270708,0.39014 -0.34374,0.60798 -0.07303,0.2177 -0.100827,0.44251 -0.08177,0.66113 0.0189,0.21849 0.08457,0.42688 0.192795,0.61282 0.493019,0.85392 1.621664,0.95384 2.4226,0.49133 0.626673,-0.36181 0.999067,-0.99018 0.987086,-1.64769 -0.01693,-0.49236 0.26874,-0.95258 0.701043,-1.21695 -0.445102,0.24212 -0.986456,0.25945 -1.404377,-10e-4 z m 16.049683,-11.2448 c 0.38625,0.23464 0.48489,0.72416 0.23019,1.1223 l -1.85843,2.83003 -0.14772,4.02777 c 1.02885,2.44767 0.95906,5.27876 -0.22083,7.9238 -0.28342,0.64782 -1.06656,1.04852 -1.7751,0.83281 -0.68823,-0.20786 -0.99667,-0.9158 -0.70021,-1.58914 0.32106,-0.74633 0.5474,-1.51206 0.64792,-2.26401 -0.63865,1.15132 -1.53646,2.20118 -2.70042,3.05034 -0.39437,0.36101 -1.3726,0.49259 -1.87177,-0.14488 -0.42656,-0.53621 -0.26968,-1.33549 0.35614,-1.78548 0.68209,-0.49716 1.23104,-1.10935 1.64094,-1.75954 -1.04635,0.90778 -2.57594,1.65402 -4.228538,1.8508 -0.755,0.0815 -1.370102,-0.40512 -1.376145,-1.1103 -0.01221,-0.68688 0.586665,-1.32809 1.32281,-1.4134 1.148963,-0.12402 2.248963,-0.70334 3.009583,-1.53093 -1.92177,1.10956 -3.683019,1.03842 -5.023747,0.213 -0.798645,-0.48988 -0.643748,-1.65119 0.189291,-2.13213 -0.831251,0.47987 -1.916144,0.0354 -1.941144,-0.90219 -0.04342,-1.53694 0.815519,-3.17471 2.526975,-4.16115 l 4.384165,-2.07331 2.22802,-3.0583 c 0.31614,-0.43239 0.88614,-0.53038 1.25677,-0.31219 z m -10.767809,5.22742 c -0.626664,0.36181 -0.999062,0.99031 -0.986979,1.64778 0.01693,0.49231 -0.268858,0.95261 -0.701039,1.21687 0.445,-0.24213 0.986456,-0.25945 1.404373,10e-4 0.563334,0.33936 1.293854,0.3307 1.920514,-0.0315 0.21115,-0.12126 0.39907,-0.27795 0.55303,-0.46166 0.15386,-0.18345 0.27071,-0.39014 0.34374,-0.60802 0.073,-0.2177 0.10082,-0.44247 0.0818,-0.66112 -0.0189,-0.2185 -0.0846,-0.42697 -0.19284,-0.6129 -0.49301,-0.85393 -1.62166,-0.95373 -2.422596,-0.49134 z"
         fill="url(#paint0_radial_1_75)"
         id="path132"
         style="fill:url(#paint0_radial_1_75);stroke-width:1.04165" />
      <path
         d="m 72.12931,120.34009 c 0.305276,0.17362 0.662866,0.2567 1.022854,0.2374 0.36,-0.0197 0.704456,-0.13897 0.985365,-0.3433 0.575728,-0.43877 0.830823,-1.2551 1.083759,-1.86863 l 0.91474,-2.22071 h 7.78814 l 0.914685,2.17342 c 0.337086,0.79925 0.747708,1.98726 1.790625,2.21269 0.270117,0.0563 0.550519,0.0594 0.822082,0.008 0.271456,-0.0504 0.527708,-0.15354 0.751042,-0.30197 0.223347,-0.14841 0.40854,-0.33896 0.542917,-0.55794 0.13437,-0.21928 0.214803,-0.46203 0.235748,-0.71184 -0.07626,-0.64428 -0.275196,-1.27167 -0.588019,-1.85457 L 83.38846,105.93818 c -0.277519,-0.78342 -0.651877,-1.53604 -1.116042,-2.24354 -0.714165,-0.9394 -2.091979,-0.97948 -3.269561,-0.59428 -1.417728,0.46372 -1.836302,2.01688 -2.33105,3.15222 -0.0033,0.008 -4.900252,10.95453 -4.900252,10.95453 -0.46974,1.05228 -0.976126,2.40744 0.357755,3.13212 z m 7.861601,-13.68503 2.887841,6.8557 h -5.723445 z"
         fill="url(#paint1_linear_1_75)"
         id="path134"
         style="fill:url(#paint1_linear_1_75);stroke-width:1.04165" />
      <path
         d="m 120.02966,140.88297 c 0.32969,0 0.64594,-0.13859 0.87907,-0.38464 0.23311,-0.24645 0.36405,-0.58062 0.36405,-0.92904 0,-0.34842 -0.13094,-0.68263 -0.36405,-0.92896 -0.23311,-0.24646 -0.54938,-0.38463 -0.87907,-0.38463 h -8.30447 l 0.14126,-1.66152 c 0.0291,-0.34684 -0.0731,-0.692 -0.28449,-0.95927 -0.21146,-0.26732 -0.51458,-0.43487 -0.84292,-0.46601 -0.32822,-0.0315 -0.65479,0.0768 -0.90781,0.29999 -0.25303,0.22323 -0.41187,0.54345 -0.44146,0.89042 l -0.16126,1.89631 h -2.83499 c -0.32981,0 -0.64594,0.13818 -0.87906,0.38463 -0.23323,0.24645 -0.36418,0.5805 -0.36418,0.92896 0,0.34842 0.13095,0.68259 0.36418,0.92904 0.23311,0.24645 0.54926,0.38464 0.87906,0.38464 h 2.61166 l -0.39248,4.61756 c -0.0291,0.34212 0.0698,0.6829 0.27563,0.94884 0.60969,0.73676 1.28834,1.40652 2.02552,1.99902 -1.56198,1.03353 -3.33791,1.65131 -5.17541,1.8006 -0.31866,0.0315 -0.61417,0.18897 -0.82479,0.44361 -0.21063,0.25473 -0.32032,0.58523 -0.30615,0.92313 0.0142,0.3378 0.15103,0.65684 0.38221,0.89082 0.23102,0.23386 0.53864,0.36456 0.85864,0.36495 0.037,0 0.0747,-0.002 0.11229,-0.004 2.6076,-0.19881 5.1051,-1.18998 7.19197,-2.85412 1.74667,1.02789 4.00521,2.23299 6.75989,2.50819 0.0401,0.004 0.0795,0.004 0.11835,0.004 0.31949,-3.2e-4 0.62656,-0.13071 0.8576,-0.36377 0.23106,-0.23307 0.36823,-0.55138 0.38311,-0.88865 0.015,-0.3374 -0.0935,-0.66759 -0.30303,-0.92258 -0.20937,-0.25512 -0.50365,-0.415 -0.82167,-0.44677 -1.98635,-0.19842 -3.66687,-1.08853 -5.04781,-1.80226 1.67698,-2.08995 2.87563,-4.56023 3.50292,-7.21904 z m -7.11822,5.84597 c -0.63063,-0.47252 -1.22354,-0.99873 -1.77292,-1.57353 l 0.36323,-4.27244 h 4.53323 c -0.58938,2.18217 -1.65979,4.18567 -3.12354,5.84597 z"
         fill="url(#paint2_linear_1_75)"
         id="path136"
         style="fill:url(#paint2_linear_1_75);stroke-width:1.04165" />
      <path
         fill-rule="evenodd"
         clip-rule="evenodd"
         d="m 121.09841,130.84137 c 0.1152,-0.97373 0.17449,-1.96473 0.17449,-2.96951 0,-13.80686 -11.19291,-24.99958 -24.999984,-24.99958 -1.004791,0 -1.995727,0.0594 -2.969581,0.17441 1.717708,0.51432 2.969581,2.10701 2.969581,3.99206 11.505934,0 20.833324,9.32724 20.833324,20.83299 1.8851,0 3.47781,1.25187 3.99218,2.96951 z m -21.855921,21.85557 c -0.973854,0.11535 -1.96479,0.1744 -2.969581,0.1744 -13.807073,0 -24.999983,-11.19271 -24.999983,-24.99956 0,-1.00479 0.05929,-1.9958 0.174527,-2.96952 0.514347,1.71765 2.107058,2.96952 3.992143,2.96952 0,11.50575 9.327388,20.83298 20.833317,20.83298 0,1.88505 1.251873,3.47773 2.969581,3.9921 z"
         fill="url(#paint3_linear_1_75)"
         id="path138"
         style="fill:url(#paint3_linear_1_75);stroke-width:1.04165" />
      <path
         fill-rule="evenodd"
         clip-rule="evenodd"
         d="m 116.96081,130.34638 c 0.096,-0.81152 0.14543,-1.63726 0.14543,-2.47452 0,-11.50575 -9.32739,-20.83299 -20.833316,-20.83299 -0.837291,0 -1.663125,0.0496 -2.474684,0.14566 1.431456,0.42858 2.474684,1.7558 2.474684,3.32667 v 0 c 9.588326,0 17.361136,7.77267 17.361136,17.36085 v 0 c 1.57083,0 2.89812,1.04309 3.32677,2.47453 z m -18.213112,18.21303 c -0.811563,0.0961 -1.637393,0.14527 -2.47479,0.14527 -11.505929,0 -20.833317,-9.32723 -20.833317,-20.83298 0,-0.83739 0.04941,-1.66309 0.145433,-2.47464 0.42861,1.43142 1.755873,2.47464 3.326786,2.47464 h 2.3e-5 c 0,9.58806 7.772837,17.36076 17.361059,17.36076 0,1.57088 1.043334,2.89818 2.47479,3.32679 z"
         fill="url(#paint4_linear_1_75)"
         id="path140"
         style="fill:url(#paint4_linear_1_75);stroke-width:1.04165" />
    </g>
  </g>
</svg>
